<?xml version="1.0" standalone="no"?>
<!DOCTYPE svg PUBLIC "-//W3C//DTD SVG 1.1//EN" "http://www.w3.org/Graphics/SVG/1.1/DTD/svg11.dtd" >
<svg xmlns="http://www.w3.org/2000/svg" xmlns:xlink="http://www.w3.org/1999/xlink" version="1.1">
<metadata></metadata>
<defs>
<font id="techno_til_dawnregular" horiz-adv-x="3072" >
<font-face units-per-em="2048" ascent="1792" descent="-256" />
<missing-glyph horiz-adv-x="1280" />
<glyph horiz-adv-x="0" />
<glyph horiz-adv-x="682" />
<glyph unicode=" "  horiz-adv-x="1280" />
<glyph unicode="&#x09;" horiz-adv-x="1280" />
<glyph unicode="&#xa0;" horiz-adv-x="1280" />
<glyph unicode="!" horiz-adv-x="768" d="M0 0v256h512v-256h-512zM0 512v1280h256v-1280h-256z" />
<glyph unicode="&#x22;" horiz-adv-x="1024" d="M0 1280v512h256v-512h-256zM512 1280v512h256v-512h-256z" />
<glyph unicode="#" d="M0 512v256h512v256h-512v256h512v512h256v-512h1280v512h256v-512h512v-256h-512v-256h512v-256h-512v-512h-256v512h-1280v-512h-256v512h-512zM768 768h1280v256h-1280v-256z" />
<glyph unicode="$" d="M0 256v256h1280v256h-1280v768h1280v256h256v-256h1280v-256h-1280v-256h1280v-768h-1280v-256h-256v256h-1280zM256 1024h1024v256h-1024v-256zM1536 512h1024v256h-1024v-256z" />
<glyph unicode="%" horiz-adv-x="1280" d="M0 1280v256h256v-256h-256zM256 0v768l256 256v768h256v-768l-256 -256v-768h-256zM768 256v256h256v-256h-256z" />
<glyph unicode="&#x26;" d="M0 256v1280h1280v256h256v-256h1280v-256h-1280v-768h1280v-256h-1280v-256h-256v256h-1280zM256 512h1024v256h-1024v-256zM256 1024h1024v256h-1024v-256z" />
<glyph unicode="'" horiz-adv-x="512" d="M0 1280v512h256v-512h-256z" />
<glyph unicode="(" horiz-adv-x="1024" d="M0 -256v2304h768v-256h-512v-1792h512v-256h-768z" />
<glyph unicode=")" horiz-adv-x="1024" d="M0 0h512v1792h-512v256h768v-2304h-768v256z" />
<glyph unicode="*" horiz-adv-x="1536" d="M0 1280v256h512v256h256v-256h512v-256h-512v-256h256v-256h-768v256h256v256h-512z" />
<glyph unicode="+" horiz-adv-x="2048" d="M0 768v256h768v768h256v-768h768v-256h-768v-768h-256v768h-768z" />
<glyph unicode="," horiz-adv-x="768" d="M0 0v256h512v-512h-256v256h-256z" />
<glyph unicode="-" horiz-adv-x="2048" d="M0 768v256h1792v-256h-1792z" />
<glyph unicode="." horiz-adv-x="768" d="M0 0v256h512v-256h-512z" />
<glyph unicode="/" horiz-adv-x="768" d="M0 0v768l256 256v768h256v-768l-256 -256v-768h-256z" />
<glyph unicode="0" d="M0 0v1792h2816v-1792h-2816zM256 256h2304v1280h-2304v-1280zM1280 768v256h256v-256h-256z" />
<glyph unicode="1" d="M0 0v256h1280v1280h-1280v256h1536v-1536h1280v-256h-2816z" />
<glyph unicode="2" d="M0 0v1024h2560v384l-128 128h-2432v256h2560l256 -256v-768h-2560v-512h2560v-256h-2816z" />
<glyph unicode="3" d="M0 0v256h2560v512h-2048v256h2048v512h-2560v256h2816v-1792h-2816z" />
<glyph unicode="4" d="M0 768v1024h256v-768h2304v768h256v-1792h-256v768h-2560z" />
<glyph unicode="5" d="M0 0v256h2560v384l-128 128h-2432v1024h2816v-256h-2560v-512h2304l256 -256v-768h-2816z" />
<glyph unicode="6" d="M0 0v1792h2816v-256h-2560v-512h2560v-1024h-2816zM256 256h2304v512h-2304v-512z" />
<glyph unicode="7" d="M0 1536v256h2816v-1792h-256v1536h-2560z" />
<glyph unicode="8" d="M0 0v1792h2816v-1792h-2816zM256 256h2304v512h-2304v-512zM256 1024h2304v512h-2304v-512z" />
<glyph unicode="9" d="M0 0v256h2560v512h-2560v1024h2816v-1792h-2816zM256 1024h2304v512h-2304v-512z" />
<glyph unicode=":" horiz-adv-x="1024" d="M256 0v256h512v-256h-512zM256 1280v256h512v-256h-512z" />
<glyph unicode=";" horiz-adv-x="1024" d="M256 0v256h512v-512h-256v256h-256zM256 1280v256h512v-256h-512z" />
<glyph unicode="&#x3c;" d="M0 256v1280l256 256h2560v-256h-2432l-128 -128v-1024l128 -128h2432v-256h-2560z" />
<glyph unicode="=" d="M0 512v256h2816v-256h-2816zM0 1024v256h2816v-256h-2816z" />
<glyph unicode="&#x3e;" d="M0 0v256h2432l128 128v1024l-128 128h-2432v256h2560l256 -256v-1280l-256 -256h-2560z" />
<glyph unicode="?" d="M0 1536v256h2816v-1024h-2304v-256h-256v512h2304v512h-2560zM256 0v256h512v-256h-512z" />
<glyph unicode="@" d="M0 0v1792h2816v-1280h-2304v768h1792v-512h256v768h-2304v-1280h1280v-256h-1536zM768 768h1280v256h-1280v-256z" />
<glyph unicode="A" d="M0 0v1792h2816v-1792h-256v768h-2304v-768h-256zM256 1024h2304v512h-2304v-512z" />
<glyph unicode="B" d="M0 0v1792h2560l256 -256v-1536h-2816zM256 256h2304v512h-2048v256h2048v384l-128 128h-2176v-1280z" />
<glyph unicode="C" d="M0 0v1792h2816v-256h-2560v-1280h2560v-256h-2816z" />
<glyph unicode="D" d="M0 0v1792h2560l256 -256v-1536h-2816zM256 256h2304v1152l-128 128h-2176v-1280z" />
<glyph unicode="E" d="M0 0v1792h2816v-256h-2560v-512h2048v-256h-2048v-512h2560v-256h-2816z" />
<glyph unicode="F" d="M0 0v1792h2816v-256h-2560v-512h2048v-256h-2048v-768h-256z" />
<glyph unicode="G" d="M0 0v1792h2816v-256h-2560v-1280h2304v512h-1792v256h2048v-1024h-2816z" />
<glyph unicode="H" d="M0 0v1792h256v-768h2304v768h256v-1792h-256v768h-2304v-768h-256z" />
<glyph unicode="I" d="M0 0v256h1280v1280h-1280v256h2816v-256h-1280v-1280h1280v-256h-2816z" />
<glyph unicode="J" d="M0 0v256h2560v1280h-2560v256h2816v-1792h-2816z" />
<glyph unicode="K" d="M0 0v1792h256v-768h1792v768h256v-768h512v-1024h-256v768h-2304v-768h-256z" />
<glyph unicode="L" d="M0 0v1792h256v-1536h2560v-256h-2816z" />
<glyph unicode="M" horiz-adv-x="3584" d="M0 0v1792h3328v-1792h-256v1536h-1280v-1536h-256v1536h-1280v-1536h-256z" />
<glyph unicode="N" d="M0 0v1792h2816v-1792h-256v1536h-2304v-1536h-256z" />
<glyph unicode="O" d="M0 0v1792h2816v-1792h-2816zM256 256h2304v1280h-2304v-1280z" />
<glyph unicode="P" d="M0 0v1792h2816v-1024h-2560v-768h-256zM256 1024h2304v512h-2304v-512z" />
<glyph unicode="Q" d="M0 0v1792h2816v-1792h-512v-256h-256v256h-2048zM256 256h1792v256h256v-256h256v1280h-2304v-1280z" />
<glyph unicode="R" d="M0 0v1792h2816v-1024h-256v-768h-256v768h-2048v-768h-256zM256 1024h2304v512h-2304v-512z" />
<glyph unicode="S" d="M0 0v256h2560v512h-2560v1024h2816v-256h-2560v-512h2560v-1024h-2816z" />
<glyph unicode="T" d="M0 1536v256h2816v-256h-1280v-1536h-256v1536h-1280z" />
<glyph unicode="U" d="M0 0v1792h256v-1536h2304v1536h256v-1792h-2816z" />
<glyph unicode="V" d="M0 0v1792h256v-1536h2176l128 128v1408h256v-1536l-256 -256h-2560z" />
<glyph unicode="W" horiz-adv-x="3584" d="M0 0v1792h256v-1536h1280v1024h256v-1024h1280v1536h256v-1792h-3328z" />
<glyph unicode="X" d="M0 0v1024h256v768h256v-768h1792v768h256v-768h256v-1024h-256v768h-2304v-768h-256z" />
<glyph unicode="Y" d="M0 768v1024h256v-768h2304v768h256v-1024h-1280v-768h-256v768h-1280z" />
<glyph unicode="Z" d="M0 0v1024h2560v512h-2560v256h2816v-1024h-2560v-512h2560v-256h-2816z" />
<glyph unicode="[" horiz-adv-x="768" d="M0 -256v2304h512v-256h-256v-1792h256v-256h-512z" />
<glyph unicode="\" horiz-adv-x="768" d="M0 1024v768h256v-768l256 -256v-768h-256v768z" />
<glyph unicode="]" horiz-adv-x="768" d="M0 0h256v1792h-256v256h512v-2304h-512v256z" />
<glyph unicode="^" d="M0 768v1024h2816v-1024h-256v768h-2304v-768h-256z" />
<glyph unicode="_" d="M0 0v256h2816v-256h-2816z" />
<glyph unicode="`" horiz-adv-x="768" d="M0 1536v256h512v-256h-512z" />
<glyph unicode="a" d="M0 0v1024h2560v256h-2560v256h2816v-1536h-2816zM256 256h2304v512h-2304v-512z" />
<glyph unicode="b" d="M0 0v1792h256v-256h2560v-1536h-2816zM256 256h2304v1024h-2304v-1024z" />
<glyph unicode="c" d="M0 0v1536h2816v-256h-2560v-1024h2560v-256h-2816z" />
<glyph unicode="d" d="M0 0v1536h2560v256h256v-1792h-2816zM256 256h2304v1024h-2304v-1024z" />
<glyph unicode="e" d="M0 0v1536h2816v-1024h-2560v-256h2560v-256h-2816zM256 768h2304v512h-2304v-512z" />
<glyph unicode="f" d="M0 768v256h256v512h2560v-256h-2304v-256h1792v-256h-1792v-768h-256v768h-256z" />
<glyph unicode="g" d="M0 0h2560v256h-2560v1280h2816v-1792h-2816v256zM256 512h2304v768h-2304v-768z" />
<glyph unicode="h" d="M0 0v1792h256v-256h2560v-1536h-256v1280h-2304v-1280h-256z" />
<glyph unicode="i" horiz-adv-x="1024" d="M0 1280v256h768v-1536h-256v1280h-512z" />
<glyph unicode="j" d="M0 0v256h2560v1024h-512v256h768v-1536h-2816z" />
<glyph unicode="k" d="M0 0v1792h256v-768h1792v512h256v-512h512v-1024h-256v768h-2304v-768h-256z" />
<glyph unicode="l" d="M0 1280v256h768v-1280h2048v-256h-2304v1280h-512z" />
<glyph unicode="m" horiz-adv-x="3584" d="M0 0v1536h3328v-1536h-256v1280h-1280v-1280h-256v1280h-1280v-1280h-256z" />
<glyph unicode="n" d="M0 0v1536h2816v-1536h-256v1280h-2304v-1280h-256z" />
<glyph unicode="o" d="M0 0v1536h2816v-1536h-2816zM256 256h2304v1024h-2304v-1024z" />
<glyph unicode="p" d="M0 -256v1792h2816v-1536h-2560v-256h-256zM256 256h2304v1024h-2304v-1024z" />
<glyph unicode="q" d="M0 0v1536h2816v-1792h-256v256h-2560zM256 256h2304v1024h-2304v-1024z" />
<glyph unicode="r" d="M0 0v1536h2816v-512h-256v256h-2304v-1280h-256z" />
<glyph unicode="s" d="M0 0v256h2560v512h-2560v768h2816v-256h-2560v-256h2560v-1024h-2816z" />
<glyph unicode="t" d="M0 1280v256h256v256h256v-256h1792v-256h-1792v-1024h2304v-256h-2560v1280h-256z" />
<glyph unicode="u" d="M0 0v1536h256v-1280h2304v1280h256v-1536h-2816z" />
<glyph unicode="v" d="M0 0v1536h256v-1280h2176l128 128v1152h256v-1280l-256 -256h-2560z" />
<glyph unicode="w" horiz-adv-x="3584" d="M0 0v1536h256v-1280h1280v768h256v-768h1280v1280h256v-1536h-3328z" />
<glyph unicode="x" d="M0 0v1024h256v512h256v-512h1792v512h256v-512h256v-1024h-256v768h-2304v-768h-256z" />
<glyph unicode="y" d="M0 0h2560v256h-2560v1280h256v-1024h2304v1024h256v-1792h-2816v256z" />
<glyph unicode="z" d="M0 0v1024h2560v256h-2560v256h2816v-768h-2560v-512h2560v-256h-2816z" />
<glyph unicode="{" horiz-adv-x="1024" d="M0 768v256h256v1024h512v-256h-256v-1792h256v-256h-512v1024h-256z" />
<glyph unicode="|" horiz-adv-x="512" d="M0 -256v2304h256v-2304h-256z" />
<glyph unicode="}" horiz-adv-x="1024" d="M0 0h256v1792h-256v256h512v-1024h256v-256h-256v-1024h-512v256z" />
<glyph unicode="~" d="M0 512v768h1536v-512h1024v512h256v-768h-1536v512h-1024v-512h-256z" />
<glyph unicode="&#xa1;" horiz-adv-x="768" d="M0 1536v256h512v-256h-512zM256 0v1280h256v-1280h-256z" />
<glyph unicode="&#xa2;" d="M0 256v1280h1280v256h256v-256h1280v-256h-1280v-768h1280v-256h-1280v-256h-256v256h-1280zM256 512h1024v768h-1024v-768z" />
<glyph unicode="&#xa3;" d="M0 768v256h256v512l256 256h2048v-256h-1920l-128 -128v-384h1280v-256h-1280v-512h2304v-256h-2560v768h-256z" />
<glyph unicode="&#xa4;" d="M0 0v1536h1024v-256h-768v-1024h2304v1024h-768v256h1024v-1536h-2816zM1280 1024v768h256v-768h-256z" />
<glyph unicode="&#xa5;" d="M0 1280v512h256v-256h2304v256h256v-512h-1280v-256h1024v-256h-1024v-256h1024v-256h-1024v-256h-256v256h-1024v256h1024v256h-1024v256h1024v256h-1280z" />
<glyph unicode="&#xa6;" horiz-adv-x="512" d="M0 0v768h256v-768h-256zM0 1024v768h256v-768h-256z" />
<glyph unicode="&#xa7;" d="M0 0v256h2560v256h-2560v1280h2816v-256h-2560v-256h2560v-1280h-2816zM256 768h2304v256h-2304v-256z" />
<glyph unicode="&#xa8;" horiz-adv-x="2560" d="M512 1536v256h256v-256h-256zM2048 1536v256h256v-256h-256z" />
<glyph unicode="&#xa9;" d="M0 0v1792h2816v-1792h-2816zM256 256h2304v1280h-2304v-1280zM512 512v768h1792v-256h-1536v-256h1536v-256h-1792z" />
<glyph unicode="&#xaa;" d="M0 512v768h2560v256h-2560v256h2816v-1280h-2816zM256 768h2304v256h-2304v-256z" />
<glyph unicode="&#xab;" d="M0 1280v256h1536v256h1280v-1792h-512v256h256v1280h-768v-256h-1792zM256 0v1024h1792v256h256v-512h-1792v-768h-256zM768 256v256h256v-256h-256zM1280 0v512h256v-512h-256zM1792 256v256h256v-256h-256z" />
<glyph unicode="&#xac;" d="M0 1024v256h2816v-768h-256v512h-2560z" />
<glyph unicode="&#xad;" d="M0 768v256h2816v-256h-2816z" />
<glyph unicode="&#xae;" d="M0 0v1792h2816v-1792h-2816zM256 256h2304v1280h-2304v-1280zM512 512v768h1792v-256h-1536v-512h-256z" />
<glyph unicode="&#xaf;" d="M0 1536v256h2816v-256h-2816z" />
<glyph unicode="&#xb0;" d="M0 768v1024h2816v-1024h-2816zM256 1024h2304v512h-2304v-512z" />
<glyph unicode="&#xb1;" horiz-adv-x="2048" d="M0 0v256h1792v-256h-1792zM0 1024v256h768v512h256v-512h768v-256h-768v-512h-256v512h-768z" />
<glyph unicode="&#xb2;" horiz-adv-x="1536" d="M0 512v768h1024v256h-1024v256h1280v-768h-1024v-256h1024v-256h-1280z" />
<glyph unicode="&#xb3;" horiz-adv-x="1536" d="M0 512v256h1024v256h-1024v256h1024v256h-1024v256h1280v-1280h-1280z" />
<glyph unicode="&#xb4;" horiz-adv-x="2304" d="M768 1280v256h512v256h768v-256h-512v-256h-768z" />
<glyph unicode="&#xb5;" d="M0 -256v1792h256v-1280h2304v1280h256v-1536h-2560v-256h-256z" />
<glyph unicode="&#xb6;" d="M0 512v1024h2816v-1536h-256v1280h-256v-1280h-256v512h-2048z" />
<glyph unicode="&#xb7;" horiz-adv-x="512" d="M0 768v256h256v-256h-256z" />
<glyph unicode="&#xb8;" horiz-adv-x="1792" d="M1280 0h256v-256h-256v256z" />
<glyph unicode="&#xb9;" horiz-adv-x="1536" d="M0 512v256h512v768h-512v256h768v-1024h512v-256h-1280z" />
<glyph unicode="&#xba;" d="M0 512v1280h2816v-1280h-2816zM256 768h2304v768h-2304v-768z" />
<glyph unicode="&#xbb;" d="M0 0v256h256v1536h2048v-256h-1792v-1536h-512zM768 0v256h256v-256h-256zM768 512v256h2048v-256h-2048zM768 1024v256h1792v512h256v-768h-2048zM1536 0v256h256v-256h-256zM2304 0v256h256v-256h-256z" />
<glyph unicode="&#xbc;" horiz-adv-x="2816" d="M256 256v256h256v768h-256v256h512v-1024h256v-256h-768zM1280 0v1792h256v-1792h-256zM1792 512v1024h256v-768h256v768h256v-1280h-256v256h-512z" />
<glyph unicode="&#xbd;" horiz-adv-x="2816" d="M256 256v256h256v768h-256v256h512v-1024h256v-256h-768zM1280 0v1792h256v-1792h-256zM1792 256v768h512v256h-512v256h768v-768h-512v-256h512v-256h-768z" />
<glyph unicode="&#xbe;" horiz-adv-x="2816" d="M256 256v256h512v256h-256v256h256v256h-512v256h768v-1280h-768zM1280 0v1792h256v-1792h-256zM1792 512v1024h256v-768h256v768h256v-1280h-256v256h-512z" />
<glyph unicode="&#xbf;" d="M0 0v1024h2048v256h256v-512h-2048v-512h2560v-256h-2816zM1792 1536v256h512v-256h-512z" />
<glyph unicode="&#xc0;" d="M0 0v1792h2816v-1792h-256v768h-2304v-768h-256zM256 1024h2304v512h-2304v-512zM768 2304v256h512l256 -256h512v-256h-512l-256 256h-512z" />
<glyph unicode="&#xc1;" d="M0 0v1792h2816v-1792h-256v768h-2304v-768h-256zM256 1024h2304v512h-2304v-512zM768 2048v256h512l256 256h512v-256h-512l-256 -256h-512z" />
<glyph unicode="&#xc2;" d="M0 0v1792h2816v-1792h-256v768h-2304v-768h-256zM256 1024h2304v512h-2304v-512zM512 2048v256l256 256h1280l256 -256v-256h-256v128l-128 128h-1024l-128 -128v-128h-256z" />
<glyph unicode="&#xc3;" d="M0 0v1792h2816v-1792h-256v768h-2304v-768h-256zM0 2048v512h1536v-256h1024v256h256v-512h-1536v256h-1024v-256h-256zM256 1024h2304v512h-2304v-512z" />
<glyph unicode="&#xc4;" d="M0 0v1792h2816v-1792h-256v768h-2304v-768h-256zM256 1024h2304v512h-2304v-512zM512 2048v256h256v-256h-256zM2048 2048v256h256v-256h-256z" />
<glyph unicode="&#xc5;" d="M0 0v1792h512v512h1792v-512h512v-1792h-256v768h-2304v-768h-256zM256 1024h2304v512h-2304v-512zM768 1792h1280v256h-1280v-256z" />
<glyph unicode="&#xc6;" horiz-adv-x="3584" d="M0 0v1792h3328v-256h-1536v-512h1280v-256h-1280v-512h1536v-256h-1792v768h-1280v-768h-256zM256 1024h1280v512h-1280v-512z" />
<glyph unicode="&#xc7;" d="M0 0v1792h2816v-256h-2560v-1280h2560v-256h-1280v-256h-256v256h-1280z" />
<glyph unicode="&#xc8;" d="M0 0v1792h2816v-256h-2560v-512h2048v-256h-2048v-512h2560v-256h-2816zM768 2304v256h512l256 -256h512v-256h-512l-256 256h-512z" />
<glyph unicode="&#xc9;" d="M0 0v1792h2816v-256h-2560v-512h2048v-256h-2048v-512h2560v-256h-2816zM768 2048v256h512l256 256h512v-256h-512l-256 -256h-512z" />
<glyph unicode="&#xca;" d="M0 0v1792h2816v-256h-2560v-512h2048v-256h-2048v-512h2560v-256h-2816zM512 2048v256l256 256h1280l256 -256v-256h-256v128l-128 128h-1024l-128 -128v-128h-256z" />
<glyph unicode="&#xcb;" d="M0 0v1792h2816v-256h-2560v-512h2048v-256h-2048v-512h2560v-256h-2816zM512 2048v256h256v-256h-256zM2048 2048v256h256v-256h-256z" />
<glyph unicode="&#xcc;" d="M0 0v256h1280v1280h-1280v256h2816v-256h-1280v-1280h1280v-256h-2816zM768 2304v256h512l256 -256h512v-256h-512l-256 256h-512z" />
<glyph unicode="&#xcd;" d="M0 0v256h1280v1280h-1280v256h2816v-256h-1280v-1280h1280v-256h-2816zM768 2048v256h512l256 256h512v-256h-512l-256 -256h-512z" />
<glyph unicode="&#xce;" d="M0 0v256h1280v1280h-1280v256h2816v-256h-1280v-1280h1280v-256h-2816zM512 2048v256l256 256h1280l256 -256v-256h-256v128l-128 128h-1024l-128 -128v-128h-256z" />
<glyph unicode="&#xcf;" d="M0 0v256h1280v1280h-1280v256h2816v-256h-1280v-1280h1280v-256h-2816zM512 2048v256h256v-256h-256zM2048 2048v256h256v-256h-256z" />
<glyph unicode="&#xd0;" d="M0 768v256h256v768h2304l256 -256v-1536h-2560v768h-256zM512 256h2048v1152l-128 128h-1920v-512h1280v-256h-1280v-512z" />
<glyph unicode="&#xd1;" d="M0 0v1792h2816v-1792h-256v1536h-2304v-1536h-256zM0 2048v512h1536v-256h1024v256h256v-512h-1536v256h-1024v-256h-256z" />
<glyph unicode="&#xd2;" d="M0 0v1792h2816v-1792h-2816zM256 256h2304v1280h-2304v-1280zM768 2304v256h512l256 -256h512v-256h-512l-256 256h-512z" />
<glyph unicode="&#xd3;" d="M0 0v1792h2816v-1792h-2816zM256 256h2304v1280h-2304v-1280zM768 2048v256h512l256 256h512v-256h-512l-256 -256h-512z" />
<glyph unicode="&#xd4;" d="M0 0v1792h2816v-1792h-2816zM256 256h2304v1280h-2304v-1280zM512 2048v256l256 256h1280l256 -256v-256h-256v128l-128 128h-1024l-128 -128v-128h-256z" />
<glyph unicode="&#xd5;" d="M0 0v1792h2816v-1792h-2816zM0 2048v512h1536v-256h1024v256h256v-512h-1536v256h-1024v-256h-256zM256 256h2304v1280h-2304v-1280z" />
<glyph unicode="&#xd6;" d="M0 0v1792h2816v-1792h-2816zM256 256h2304v1280h-2304v-1280zM512 2048v256h256v-256h-256zM2048 2048v256h256v-256h-256z" />
<glyph unicode="&#xd7;" horiz-adv-x="2048" d="M0 256v1536h1792v-1536h-512v256h256v1024h-1280v-1024h256v-256h-512zM768 0v768h256v-768h-256z" />
<glyph unicode="&#xd8;" d="M0 0v1792h2816v-1792h-2816zM256 256h2304v512h-2304v-512zM256 1024h2304v512h-2304v-512z" />
<glyph unicode="&#xd9;" d="M0 0v1792h256v-1536h2304v1536h256v-1792h-2816zM768 2304v256h512l256 -256h512v-256h-512l-256 256h-512z" />
<glyph unicode="&#xda;" d="M0 0v1792h256v-1536h2304v1536h256v-1792h-2816zM768 2048v256h512l256 256h512v-256h-512l-256 -256h-512z" />
<glyph unicode="&#xdb;" d="M0 0v1792h256v-1536h2304v1536h256v-1792h-2816zM512 2048v256l256 256h1280l256 -256v-256h-256v128l-128 128h-1024l-128 -128v-128h-256z" />
<glyph unicode="&#xdc;" d="M0 0v1792h256v-1536h2304v1536h256v-1792h-2816zM512 2048v256h256v-256h-256zM2048 2048v256h256v-256h-256z" />
<glyph unicode="&#xdd;" d="M0 768v1024h256v-768h2304v768h256v-1024h-1280v-768h-256v768h-1280zM768 2048v256h512l256 256h512v-256h-512l-256 -256h-512z" />
<glyph unicode="&#xde;" d="M0 0v1792h256v-256h2560v-1280h-2560v-256h-256zM256 512h2304v768h-2304v-768z" />
<glyph unicode="&#xdf;" d="M0 0v1792h2560v-768h256v-1024h-2048v256h1792v512h-1280v256h1024v512h-2048v-1536h-256z" />
<glyph unicode="&#xe0;" d="M0 0v1024h2560v256h-2560v256h2816v-1536h-2816zM256 256h2304v512h-2304v-512zM768 2048v256h512l256 -256h512v-256h-512l-256 256h-512z" />
<glyph unicode="&#xe1;" d="M0 0v1024h2560v256h-2560v256h2816v-1536h-2816zM256 256h2304v512h-2304v-512zM768 1792v256h512l256 256h512v-256h-512l-256 -256h-512z" />
<glyph unicode="&#xe2;" d="M0 0v1024h2560v256h-2560v256h2816v-1536h-2816zM256 256h2304v512h-2304v-512zM512 1792v256l256 256h1280l256 -256v-256h-256v128l-128 128h-1024l-128 -128v-128h-256z" />
<glyph unicode="&#xe3;" d="M0 0v1024h2560v256h-2560v256h2816v-1536h-2816zM0 1792v512h1536v-256h1024v256h256v-512h-1536v256h-1024v-256h-256zM256 256h2304v512h-2304v-512z" />
<glyph unicode="&#xe4;" d="M0 0v1024h2560v256h-2560v256h2816v-1536h-2816zM256 256h2304v512h-2304v-512zM512 1792v256h256v-256h-256zM2048 1792v256h256v-256h-256z" />
<glyph unicode="&#xe5;" d="M0 0v1024h2560v256h-2560v256h512v512h1792v-512h512v-1536h-2816zM256 256h2304v512h-2304v-512zM768 1536h1280v256h-1280v-256z" />
<glyph unicode="&#xe6;" horiz-adv-x="3584" d="M0 0v1024h1536v256h-1536v256h3328v-1024h-1536v-256h1536v-256h-3328zM256 256h1280v512h-1280v-512zM1792 768h1280v512h-1280v-512z" />
<glyph unicode="&#xe7;" d="M0 0v1536h2816v-256h-2560v-1024h2560v-256h-1280v-256h-256v256h-1280z" />
<glyph unicode="&#xe8;" d="M0 0v1536h2816v-1024h-2560v-256h2560v-256h-2816zM256 768h2304v512h-2304v-512zM768 2048v256h512l256 -256h512v-256h-512l-256 256h-512z" />
<glyph unicode="&#xe9;" d="M0 0v1536h2816v-1024h-2560v-256h2560v-256h-2816zM256 768h2304v512h-2304v-512zM768 1792v256h512l256 256h512v-256h-512l-256 -256h-512z" />
<glyph unicode="&#xea;" d="M0 0v1536h2816v-1024h-2560v-256h2560v-256h-2816zM256 768h2304v512h-2304v-512zM512 1792v256l256 256h1280l256 -256v-256h-256v128l-128 128h-1024l-128 -128v-128h-256z" />
<glyph unicode="&#xeb;" d="M0 0v1536h2816v-1024h-2560v-256h2560v-256h-2816zM256 768h2304v512h-2304v-512zM512 1792v256h256v-256h-256zM2048 1792v256h256v-256h-256z" />
<glyph unicode="&#xec;" horiz-adv-x="1024" d="M-256 2048v256h512l256 -256h512v-256h-512l-256 256h-512zM0 1280v256h768v-1536h-256v1280h-512z" />
<glyph unicode="&#xed;" horiz-adv-x="1024" d="M-256 1792v256h512l256 256h512v-256h-512l-256 -256h-512zM0 1280v256h768v-1536h-256v1280h-512z" />
<glyph unicode="&#xee;" horiz-adv-x="1024" d="M-512 1792v256l256 256h1280l256 -256v-256h-256v128l-128 128h-1024l-128 -128v-128h-256zM0 1280v256h768v-1536h-256v1280h-512z" />
<glyph unicode="&#xef;" horiz-adv-x="1024" d="M-256 1792v256h256v-256h-256zM0 1280v256h768v-1536h-256v1280h-512zM768 1792v256h256v-256h-256z" />
<glyph unicode="&#xf0;" d="M0 0v1024h2560v512h-1024v-256h-256v256h-1024v256h2560v-1792h-2816zM256 256h2304v512h-2304v-512z" />
<glyph unicode="&#xf1;" d="M0 0v1536h2816v-1536h-256v1280h-2304v-1280h-256zM0 1792v512h1536v-256h1024v256h256v-512h-1536v256h-1024v-256h-256z" />
<glyph unicode="&#xf2;" d="M0 0v1536h2816v-1536h-2816zM256 256h2304v1024h-2304v-1024zM768 2048v256h512l256 -256h512v-256h-512l-256 256h-512z" />
<glyph unicode="&#xf3;" d="M0 0v1536h2816v-1536h-2816zM256 256h2304v1024h-2304v-1024zM768 1792v256h512l256 256h512v-256h-512l-256 -256h-512z" />
<glyph unicode="&#xf4;" d="M0 0v1536h2816v-1536h-2816zM256 256h2304v1024h-2304v-1024zM512 1792v256l256 256h1280l256 -256v-256h-256v128l-128 128h-1024l-128 -128v-128h-256z" />
<glyph unicode="&#xf5;" d="M0 0v1536h2816v-1536h-2816zM0 1792v512h1536v-256h1024v256h256v-512h-1536v256h-1024v-256h-256zM256 256h2304v1024h-2304v-1024z" />
<glyph unicode="&#xf6;" d="M0 0v1536h2816v-1536h-2816zM256 256h2304v1024h-2304v-1024zM512 1792v256h256v-256h-256zM2048 1792v256h256v-256h-256z" />
<glyph unicode="&#xf7;" horiz-adv-x="2048" d="M0 0v1536h512v-256h-256v-1024h1280v1024h-256v256h512v-1536h-1792zM768 1024v768h256v-768h-256z" />
<glyph unicode="&#xf8;" d="M0 0v1536h2816v-1536h-2816zM256 256h2304v256h-2304v-256zM256 768h2304v512h-2304v-512z" />
<glyph unicode="&#xf9;" d="M0 0v1536h256v-1280h2304v1280h256v-1536h-2816zM768 2048v256h512l256 -256h512v-256h-512l-256 256h-512z" />
<glyph unicode="&#xfa;" d="M0 0v1536h256v-1280h2304v1280h256v-1536h-2816zM768 1792v256h512l256 256h512v-256h-512l-256 -256h-512z" />
<glyph unicode="&#xfb;" d="M0 0v1536h256v-1280h2304v1280h256v-1536h-2816zM512 1792v256l256 256h1280l256 -256v-256h-256v128l-128 128h-1024l-128 -128v-128h-256z" />
<glyph unicode="&#xfc;" d="M0 0v1536h256v-1280h2304v1280h256v-1536h-2816zM512 1792v256h256v-256h-256zM2048 1792v256h256v-256h-256z" />
<glyph unicode="&#xfd;" d="M0 0h2560v256h-2560v1280h256v-1024h2304v1024h256v-1792h-2816v256zM768 1792v256h512l256 256h512v-256h-512l-256 -256h-512z" />
<glyph unicode="&#xfe;" d="M0 -256v1792h256v-256h2560v-1280h-2560v-256h-256zM256 256h2304v768h-2304v-768z" />
<glyph unicode="&#xff;" d="M0 0h2560v256h-2560v1280h256v-1024h2304v1024h256v-1792h-2816v256zM512 1792v256h256v-256h-256zM2048 1792v256h256v-256h-256z" />
<glyph unicode="&#x152;" horiz-adv-x="3584" d="M0 0v1792h3328v-256h-1536v-512h1280v-256h-1280v-512h1536v-256h-3328zM256 256h1280v1280h-1280v-1280z" />
<glyph unicode="&#x153;" horiz-adv-x="3584" d="M0 0v1536h3328v-1024h-1536v-256h1536v-256h-3328zM256 256h1280v1024h-1280v-1024zM1792 768h1280v512h-1280v-512z" />
<glyph unicode="&#x178;" d="M0 768v1024h256v-768h2304v768h256v-1024h-1280v-768h-256v768h-1280zM512 2048v256h256v-256h-256zM2048 2048v256h256v-256h-256z" />
<glyph unicode="&#x2000;" horiz-adv-x="1280" />
<glyph unicode="&#x2001;" horiz-adv-x="2560" />
<glyph unicode="&#x2002;" horiz-adv-x="1280" />
<glyph unicode="&#x2003;" horiz-adv-x="2560" />
<glyph unicode="&#x2004;" horiz-adv-x="853" />
<glyph unicode="&#x2005;" horiz-adv-x="640" />
<glyph unicode="&#x2006;" horiz-adv-x="426" />
<glyph unicode="&#x2007;" horiz-adv-x="426" />
<glyph unicode="&#x2008;" horiz-adv-x="320" />
<glyph unicode="&#x2009;" horiz-adv-x="512" />
<glyph unicode="&#x200a;" horiz-adv-x="142" />
<glyph unicode="&#x2010;" horiz-adv-x="2048" d="M0 768v256h1792v-256h-1792z" />
<glyph unicode="&#x2011;" horiz-adv-x="2048" d="M0 768v256h1792v-256h-1792z" />
<glyph unicode="&#x2012;" horiz-adv-x="2048" d="M0 768v256h1792v-256h-1792z" />
<glyph unicode="&#x2013;" horiz-adv-x="1280" d="M0 768v256h1024v-256h-1024z" />
<glyph unicode="&#x2014;" horiz-adv-x="3584" d="M0 768v256h3328v-256h-3328z" />
<glyph unicode="&#x2018;" horiz-adv-x="768" d="M0 1280v512h512v-256h-256v-256h-256z" />
<glyph unicode="&#x2019;" horiz-adv-x="768" d="M0 1536v256h512v-512h-256v256h-256z" />
<glyph unicode="&#x201a;" horiz-adv-x="768" d="M0 0v256h512v-512h-256v256h-256z" />
<glyph unicode="&#x201c;" horiz-adv-x="1536" d="M0 1280v512h512v-256h-256v-256h-256zM768 1280v512h512v-256h-256v-256h-256z" />
<glyph unicode="&#x201d;" horiz-adv-x="1536" d="M0 1536v256h512v-512h-256v256h-256zM768 1536v256h512v-512h-256v256h-256z" />
<glyph unicode="&#x201e;" horiz-adv-x="1536" d="M0 0v256h512v-512h-256v256h-256zM768 0v256h512v-512h-256v256h-256z" />
<glyph unicode="&#x2022;" horiz-adv-x="1024" d="M0 512v768h768v-768h-768z" />
<glyph unicode="&#x2026;" horiz-adv-x="2816" d="M0 0v256h512v-256h-512zM1024 0v256h512v-256h-512zM2048 0v256h512v-256h-512z" />
<glyph unicode="&#x202f;" horiz-adv-x="512" />
<glyph unicode="&#x2039;" d="M0 768v256h256v768h2304v-768h256v-256h-256v-768h-2304v768h-256zM512 256h1792v1280h-1792v-1280zM1280 768v256h256v-256h-256z" />
<glyph unicode="&#x203a;" d="M0 512v256h256v512h256v512h256v-512h512v512h256v-512h512v512h256v-512h256v-512h256v-256h-256v-512h-2304v512h-256zM512 256h1792v768h-1792v-768zM1280 512v256h256v-256h-256z" />
<glyph unicode="&#x205f;" horiz-adv-x="640" />
<glyph unicode="&#x20ac;" d="M0 512v256h256v256h-256v256h256v512h2560v-256h-2304v-256h2048v-256h-2048v-256h2048v-256h-2048v-256h2304v-256h-2560v512h-256z" />
<glyph unicode="&#x2122;" horiz-adv-x="3328" d="M0 1536v256h3072v-1024h-256v768h-512v-768h-256v768h-512v-768h-256v768h-512v-768h-256v768h-512z" />
<glyph unicode="&#x25fc;" horiz-adv-x="1535" d="M0 0v1535h1535v-1535h-1535z" />
</font>
</defs>
</svg>
